HIERARCHY
ROOT Pelvis
{
	OFFSET 0.000000 0.000000 0.000000
	CHANNELS 6 Xposition Yposition Zposition Xrotation Yrotation Zrotation
	JOINT LeftUpLeg_virtual
	{
		OFFSET 0.000000 0.000000 0.000000
		CHANNELS 3 Xrotation Yrotation Zrotation
		JOINT LeftUpLeg
		{
			OFFSET 8.479700 -4.795502 -0.379100
			CHANNELS 3 Xrotation Yrotation Zrotation
			JOINT LeftLeg
			{
				OFFSET 0.024144 -32.555107 0.112900
				CHANNELS 3 Xrotation Yrotation Zrotation
				JOINT LeftFoot
				{
					OFFSET -0.024144 -32.638630 -3.012600
					CHANNELS 3 Xrotation Yrotation Zrotation
					JOINT LeftToeBase
					{
						OFFSET 0.970200 -13.225400 11.864200
						CHANNELS 3 Xrotation Yrotation Zrotation
						End Site
						{
							OFFSET 0 0 0
						}
					}
				}
			}
		}
	}
	JOINT RightUpLeg_virtual
	{
		OFFSET 0.000000 0.000000 0.000000
		CHANNELS 3 Xrotation Yrotation Zrotation
		JOINT RightUpLeg
		{
			OFFSET -8.479700 -4.795502 -0.379100
			CHANNELS 3 Xrotation Yrotation Zrotation
			JOINT RightLeg
			{
				OFFSET -0.023144 -32.555092 0.112900
				CHANNELS 3 Xrotation Yrotation Zrotation
				JOINT RightFoot
				{
					OFFSET 0.023144 -32.638641 -3.012700
					CHANNELS 3 Xrotation Yrotation Zrotation
					JOINT RightToeBase
					{
						OFFSET -0.970200 -13.225400 11.864200
						CHANNELS 3 Xrotation Yrotation Zrotation
						End Site
						{
							OFFSET 0 0 0
						}
					}
				}
			}
		}
	}
	JOINT Hips_virtual
	{
		OFFSET 0.000000 0.000000 0.000000
		CHANNELS 3 Xrotation Yrotation Zrotation
		JOINT Hips
		{
			OFFSET -0.000000 -0.000000 -0.000000
			CHANNELS 3 Xrotation Yrotation Zrotation
			JOINT Spine
			{
				OFFSET 0.000000 7.722000 1.166200
				CHANNELS 3 Xrotation Yrotation Zrotation
				JOINT Spine1
				{
					OFFSET 0.000000 12.024101 0.248800
					CHANNELS 3 Xrotation Yrotation Zrotation
					JOINT Spine2
					{
						OFFSET 0.000000 11.502998 -0.491200
						CHANNELS 3 Xrotation Yrotation Zrotation
						JOINT Neck_virtual
						{
							OFFSET 0.000000 0.000000 0.000000
							CHANNELS 3 Xrotation Yrotation Zrotation
							JOINT Neck
							{
								OFFSET 0.000000 18.430702 -3.123100
								CHANNELS 3 Xrotation Yrotation Zrotation
								JOINT Head
								{
									OFFSET 0.000000 9.051102 1.034000
									CHANNELS 3 Xrotation Yrotation Zrotation
									End Site
									{
										OFFSET 0 0 0
									}
								}
							}
						}
						JOINT LeftShoulder_virtual
						{
							OFFSET 0.000000 0.000000 0.000000
							CHANNELS 3 Xrotation Yrotation Zrotation
							JOINT LeftShoulder
							{
								OFFSET 6.197800 13.665199 -4.064700
								CHANNELS 3 Xrotation Yrotation Zrotation
								JOINT LeftArm
								{
									OFFSET 7.778100 -0.187103 -1.709300
									CHANNELS 3 Xrotation Yrotation Zrotation
									JOINT LeftForeArm
									{
										OFFSET 22.049376 0.000000 0.000000
										CHANNELS 3 Xrotation Yrotation Zrotation
										JOINT LeftHand
										{
											OFFSET 23.009392 0.000000 0.000000
											CHANNELS 3 Xrotation Yrotation Zrotation
											End Site
											{
												OFFSET 0 0 0
											}
										}
									}
								}
							}
						}
						JOINT RightShoulder_virtual
						{
							OFFSET 0.000000 0.000000 0.000000
							CHANNELS 3 Xrotation Yrotation Zrotation
							JOINT RightShoulder
							{
								OFFSET -6.197800 13.665199 -4.064700
								CHANNELS 3 Xrotation Yrotation Zrotation
								JOINT RightArm
								{
									OFFSET -7.778100 -0.187103 -1.709300
									CHANNELS 3 Xrotation Yrotation Zrotation
									JOINT RightForeArm
									{
										OFFSET -22.049376 0.000000 0.000000
										CHANNELS 3 Xrotation Yrotation Zrotation
										JOINT RightHand
										{
											OFFSET -23.009392 0.000000 0.000000
											CHANNELS 3 Xrotation Yrotation Zrotation
											End Site
											{
												OFFSET 0 0 0
											}
										}
									}
								}
							}
						}
					}
				}
			}
		}
	}
}
MOTION
Frames: 12
Frame Time: 0.03333333
-0.263241 81.114792 0.070301 0.000000 0.000000 0.000000 -7.175172 -4.213539 2.944437 -9.146719 11.655930 5.402492 11.034341 7.595406 1.494343 6.375437 0.061113 -5.989195 0.000000 0.000000 0.000000 -7.175172 -4.213539 2.944437 1.944625 -15.610676 -6.130206 21.281934 -9.182872 -3.342556 -16.163100 -5.480363 7.309202 0.000000 0.000000 0.000000 -7.175172 -4.213539 2.944437 0.000000 0.000000 0.000000 5.271390 2.074429 -2.040360 1.478230 0.730365 -0.788770 0.000000 0.000000 0.000000 1.440798 0.721971 -0.741220 2.260305 5.360285 1.627123 0.000000 0.000000 0.000000 1.440798 0.721971 -0.741220 -0.595443 -16.331997 -20.041817 11.139992 0.583278 -33.762407 0.008193 -89.545863 0.008112 0.000000 0.000000 0.000000 1.440798 0.721971 -0.741220 0.754164 18.436591 11.539477 10.691747 23.557095 38.362198 179.999677 82.036145 -179.999677 0.000000 0.000000 0.000000 
-0.130562 81.009277 0.035255 0.000000 0.000000 0.000000 -7.092736 -4.373672 2.981285 -9.870189 11.595914 5.381286 12.315222 7.389230 1.496080 5.751379 0.476879 -6.005141 0.000000 0.000000 0.000000 -7.092736 -4.373672 2.981285 1.302434 -15.469262 -6.434729 22.183833 -9.088479 -3.346915 -16.502972 -5.515992 7.444444 0.000000 0.000000 0.000000 -7.092736 -4.373672 2.981285 -0.000001 0.000000 0.000000 5.270577 2.004965 -2.069257 1.478230 0.635006 -0.779718 0.000000 0.000000 0.000000 1.440799 0.631945 -0.712958 2.269832 5.220008 1.536724 0.000000 0.000000 0.000000 1.440799 0.631945 -0.712958 -0.595443 -16.331998 -20.041824 11.399580 0.974258 -33.753921 0.021409 -89.758528 0.020495 0.000000 0.000000 0.000000 1.440799 0.631945 -0.712958 0.751042 18.451082 11.540469 10.590268 23.808702 38.571922 179.999472 82.226858 -179.999459 0.000000 0.000000 0.000000 
-0.011301 80.910431 -0.003126 0.000000 0.000000 0.000000 -7.009725 -4.528997 3.023770 -10.503725 11.548071 5.345528 13.408421 7.160708 1.498577 5.227082 0.906334 -6.014434 0.000000 0.000000 0.000000 -7.009725 -4.528997 3.023770 0.694572 -15.330390 -6.719809 23.018421 -8.998455 -3.351821 -16.813692 -5.547715 7.563225 0.000000 0.000000 0.000000 -7.009725 -4.528997 3.023770 -0.000001 -0.000001 -0.000000 5.269971 1.942411 -2.101795 1.478230 0.545824 -0.771255 0.000000 0.000000 0.000000 1.440799 0.547799 -0.686543 2.278950 5.079157 1.446695 0.000000 0.000000 0.000000 1.440799 0.547799 -0.686543 -0.595443 -16.331997 -20.041821 11.673885 1.386660 -33.751079 -0.073680 -89.980215 -0.068995 0.000000 0.000000 0.000000 1.440799 0.547799 -0.686543 0.748014 18.465153 11.541427 10.484200 24.073599 38.792961 -179.999513 82.426197 179.999541 0.000000 0.000000 0.000000 
0.101144 80.815369 -0.043182 0.000000 0.000000 0.000000 -6.926341 -4.681898 3.069325 -11.081495 11.508329 5.300568 14.386013 6.913979 1.503833 4.763858 1.349467 -6.020436 0.000000 0.000000 0.000000 -6.926341 -4.681898 3.069325 0.109908 -15.193141 -6.993268 23.807676 -8.909026 -3.356463 -17.104170 -5.576909 7.671857 0.000000 0.000000 0.000000 -6.926341 -4.681898 3.069325 0.000000 0.000000 0.000000 5.269488 1.883319 -2.136296 1.478230 0.459727 -0.763087 0.000000 0.000000 0.000000 1.440798 0.466592 -0.661054 2.287673 4.938016 1.356870 0.000000 0.000000 0.000000 1.440798 0.466592 -0.661054 -0.595443 -16.331997 -20.041821 11.962417 1.823212 -33.756144 -179.970990 -89.790644 -179.971455 0.000000 0.000000 0.000000 1.440798 0.466592 -0.661054 0.744927 18.479493 11.542399 10.372844 24.349252 39.024381 -179.999759 82.633131 179.999759 0.000000 0.000000 0.000000 
0.213149 80.721954 -0.083502 0.000000 0.000000 0.000000 -6.842787 -4.834941 3.116488 -11.627175 11.474647 5.247591 15.298910 6.653458 1.509113 4.333644 1.805822 -6.019012 0.000000 0.000000 0.000000 -6.842787 -4.834941 3.116488 -0.459807 -15.056279 -7.262778 24.567024 -8.816642 -3.357747 -17.379973 -5.604729 7.776211 0.000000 0.000000 0.000000 -6.842787 -4.834941 3.116488 0.000001 0.000000 0.000000 5.269056 1.824317 -2.172179 1.478231 0.373632 -0.754921 0.000000 0.000000 0.000000 1.440799 0.385385 -0.635565 2.296012 4.796858 1.267086 0.000000 0.000000 0.000000 1.440799 0.385385 -0.635565 -0.595443 -16.331997 -20.041817 12.260826 2.275649 -33.762629 179.999814 -89.544572 179.999909 0.000000 0.000000 0.000000 1.440799 0.385385 -0.635565 0.745094 18.495001 11.543409 10.252227 24.630851 39.267441 179.999103 82.846861 -179.999144 0.000000 0.000000 0.000000 
0.330995 80.628410 -0.122715 0.000000 0.000000 0.000000 -6.759252 -4.990714 3.164122 -12.155270 11.446256 5.185942 16.180018 6.383466 1.514281 3.917357 2.274753 -6.007574 0.000000 0.000000 0.000000 -6.759252 -4.990714 3.164122 -1.021467 -14.918265 -7.535220 25.308622 -8.717576 -3.358092 -17.644955 -5.632622 7.881701 0.000000 0.000000 0.000000 -6.759252 -4.990714 3.164122 0.000001 0.000000 0.000000 5.268650 1.762032 -2.209195 1.478230 0.284448 -0.746464 0.000000 0.000000 0.000000 1.440799 0.301237 -0.609156 2.303981 4.655963 1.177176 0.000000 0.000000 0.000000 1.440799 0.301237 -0.609156 -0.595443 -16.331997 -20.041821 12.568538 2.744945 -33.772017 179.982848 -89.289758 179.982848 0.000000 0.000000 0.000000 1.440799 0.301237 -0.609156 0.746526 18.509855 11.541847 10.125549 24.920386 39.519929 179.998721 83.066247 -179.998721 0.000000 0.000000 0.000000 
0.460887 80.533249 -0.159533 0.000000 0.000000 0.000000 -6.675921 -5.151901 3.211451 -12.677138 11.423100 5.114028 17.055807 6.108356 1.519276 3.499191 2.755442 -5.982985 0.000000 0.000000 0.000000 -6.675921 -5.151901 3.211451 -1.579915 -14.777241 -7.817337 26.040395 -8.609670 -3.357911 -17.900777 -5.660316 7.993896 0.000000 0.000000 0.000000 -6.675921 -5.151901 3.211451 0.000000 0.000000 0.000000 5.268242 1.693150 -2.247445 1.476995 0.189087 -0.737423 0.000000 0.000000 0.000000 1.440799 0.211210 -0.580904 2.311595 4.515615 1.086977 0.000000 0.000000 0.000000 1.440799 0.211210 -0.580904 -0.595443 -16.331997 -20.041821 12.881839 3.223692 -33.784967 179.997655 -89.027629 179.997724 0.000000 0.000000 0.000000 1.440799 0.211210 -0.580904 0.747687 18.526429 11.539873 9.993125 25.212711 39.777328 -179.998980 83.290537 179.998980 0.000000 0.000000 0.000000 
0.608986 80.434967 -0.192669 0.000000 0.000000 0.000000 -6.592983 -5.321171 3.257749 -13.201189 11.405710 5.029576 17.946894 5.832518 1.524104 3.066144 3.246936 -5.941580 0.000000 0.000000 0.000000 -6.592983 -5.321171 3.257749 -2.140255 -14.631001 -8.115659 26.770870 -8.488208 -3.357915 -18.149483 -5.690269 8.117345 0.000000 0.000000 0.000000 -6.592983 -5.321171 3.257749 0.000000 0.000000 0.000000 5.267804 1.614322 -2.287076 1.475393 0.084465 -0.727507 0.000000 0.000000 0.000000 1.440799 0.112362 -0.549884 2.318864 4.376089 0.996322 0.000000 0.000000 0.000000 1.440799 0.112362 -0.549884 -0.595443 -16.331997 -20.041821 13.192814 3.702763 -33.799048 179.995661 -88.760460 179.995948 0.000000 0.000000 0.000000 1.440799 0.112362 -0.549884 0.747126 18.548709 11.538032 9.854036 25.499113 40.033778 -179.999049 83.518590 179.999062 0.000000 0.000000 0.000000 
0.781415 80.332268 -0.220882 0.000000 0.000000 0.000000 -6.510608 -5.501218 3.302456 -13.733128 11.395147 4.929701 18.868358 5.560426 1.528612 2.607995 3.748056 -5.879110 0.000000 0.000000 0.000000 -6.510608 -5.501218 3.302456 -2.706372 -14.476967 -8.436574 27.505944 -8.350792 -3.358444 -18.391702 -5.722631 8.257185 0.000000 0.000000 0.000000 -6.510608 -5.501218 3.302456 0.000000 0.000000 0.000000 5.267331 1.522242 -2.328398 1.473639 -0.032509 -0.716422 0.000000 0.000000 0.000000 1.440415 0.001752 -0.515177 2.325797 4.237667 0.905045 0.000000 0.000000 0.000000 1.440415 0.001752 -0.515177 -0.595443 -16.331997 -20.041821 13.506011 4.185166 -33.816301 179.995429 -88.489875 179.995729 0.000000 0.000000 0.000000 1.440415 0.001752 -0.515177 0.746112 18.573409 11.536195 9.710934 25.784828 40.290483 179.999868 83.749532 -179.999841 0.000000 0.000000 0.000000 
0.984273 80.223900 -0.242935 0.000000 0.000000 0.000000 -6.428986 -5.694749 3.345022 -14.278454 11.392835 4.811440 19.834483 5.296597 1.532677 2.114926 4.257559 -5.791153 0.000000 0.000000 0.000000 -6.428986 -5.694749 3.345022 -3.281542 -14.312926 -8.784156 28.249522 -8.195069 -3.359451 -18.626875 -5.758863 8.420591 0.000000 0.000000 0.000000 -6.428986 -5.694749 3.345022 0.000000 0.000000 0.000000 5.266811 1.413584 -2.371728 1.471797 -0.164925 -0.703878 0.000000 0.000000 0.000000 1.439871 -0.123555 -0.475860 2.332405 4.100627 0.812983 0.000000 0.000000 0.000000 1.439871 -0.123555 -0.475860 -0.595443 -16.331997 -20.041821 13.822914 4.671625 -33.837467 -179.997396 -88.215458 -179.997287 0.000000 0.000000 0.000000 1.439871 -0.123555 -0.475860 0.744917 18.598883 11.534093 9.565276 26.071609 40.547210 179.999855 83.982298 -179.999868 0.000000 0.000000 0.000000 
1.287089 80.094955 -0.244623 0.000000 0.000000 0.000000 -6.350204 -5.932340 3.378690 -14.904753 11.408294 4.641289 21.024007 5.075549 1.535894 1.468515 4.779546 -5.633908 0.000000 0.000000 0.000000 -6.350204 -5.932340 3.378690 -3.908614 -14.110595 -9.231395 29.069237 -7.986854 -3.361164 -18.863166 -5.809109 8.662269 0.000000 0.000000 0.000000 -6.350204 -5.932340 3.378690 0.000000 0.000000 0.000000 5.261174 1.250742 -2.420268 1.469927 -0.347769 -0.686563 0.000000 0.000000 0.000000 1.439188 -0.296887 -0.421479 2.338823 3.968126 0.718276 0.000000 0.000000 0.000000 1.439188 -0.296887 -0.421479 -0.595442 -16.331998 -20.041819 14.143420 5.159096 -33.861793 179.995388 -87.939772 179.995265 0.000000 0.000000 0.000000 1.439188 -0.296887 -0.421479 0.742950 18.624751 11.531559 9.417963 26.358706 40.802478 179.999704 84.216157 -179.999718 0.000000 0.000000 0.000000 
1.597451 79.966522 -0.266283 0.000000 0.000000 0.000000 -6.271747 -6.174403 3.413036 -15.510207 11.433925 4.458898 22.136384 4.858331 1.538757 0.874690 5.301207 -5.456886 0.000000 0.000000 0.000000 -6.271747 -6.174403 3.413036 -4.551286 -13.900862 -9.681404 29.878365 -7.769920 -3.362646 -19.074625 -5.856986 8.896747 0.000000 0.000000 0.000000 -6.271747 -6.174403 3.413036 0.000000 0.000000 0.000000 5.255033 1.081846 -2.471057 1.468091 -0.536525 -0.668695 0.000000 0.000000 0.000000 1.438389 -0.475840 -0.365338 2.344712 3.824085 0.625174 0.000000 0.000000 0.000000 1.438389 -0.475840 -0.365338 -0.595443 -16.331998 -20.041822 14.466153 5.644707 -33.888793 -179.999554 -87.663593 -179.999472 0.000000 0.000000 0.000000 1.438389 -0.475840 -0.365338 0.739780 18.651129 11.529825 9.269829 26.644742 41.054280 179.999021 84.449811 -179.999035 0.000000 0.000000 0.000000 
